<svg width="20" height="21" viewBox="0 0 20 21" fill="none" xmlns="http://www.w3.org/2000/svg">
<path fill-rule="evenodd" clip-rule="evenodd" d="M10.0002 2.99998C5.85803 2.99998 2.50016 6.35784 2.50016 10.5C2.50016 14.6421 5.85803 18 10.0002 18C14.1423 18 17.5002 14.6421 17.5002 10.5C17.5002 6.35784 14.1423 2.99998 10.0002 2.99998ZM0.833496 10.5C0.833496 5.43737 4.93755 1.33331 10.0002 1.33331C15.0628 1.33331 19.1668 5.43737 19.1668 10.5C19.1668 15.5626 15.0628 19.6666 10.0002 19.6666C4.93755 19.6666 0.833496 15.5626 0.833496 10.5Z" fill="#261700"/>
<path fill-rule="evenodd" clip-rule="evenodd" d="M9.99984 6.33331C10.4601 6.33331 10.8332 6.70641 10.8332 7.16665V10.5C10.8332 10.9602 10.4601 11.3333 9.99984 11.3333C9.5396 11.3333 9.1665 10.9602 9.1665 10.5V7.16665C9.1665 6.70641 9.5396 6.33331 9.99984 6.33331Z" fill="#261700"/>
<path fill-rule="evenodd" clip-rule="evenodd" d="M9.1665 13.8333C9.1665 13.3731 9.5396 13 9.99984 13H10.0082C10.4684 13 10.8415 13.3731 10.8415 13.8333C10.8415 14.2936 10.4684 14.6667 10.0082 14.6667H9.99984C9.5396 14.6667 9.1665 14.2936 9.1665 13.8333Z" fill="#261700"/>
</svg>
