<svg width="20" height="21" viewBox="0 0 20 21" fill="none" xmlns="http://www.w3.org/2000/svg">
<path fill-rule="evenodd" clip-rule="evenodd" d="M3.33301 10.5C3.33301 10.0398 3.7061 9.66666 4.16634 9.66666H15.833C16.2932 9.66666 16.6663 10.0398 16.6663 10.5C16.6663 10.9602 16.2932 11.3333 15.833 11.3333H4.16634C3.7061 11.3333 3.33301 10.9602 3.33301 10.5Z" fill="#061D37"/>
<path fill-rule="evenodd" clip-rule="evenodd" d="M9.41107 4.07742C9.73651 3.75198 10.2641 3.75198 10.5896 4.07742L16.4229 9.91076C16.7484 10.2362 16.7484 10.7638 16.4229 11.0893L10.5896 16.9226C10.2641 17.248 9.73651 17.248 9.41107 16.9226C9.08563 16.5972 9.08563 16.0695 9.41107 15.7441L14.6551 10.5L9.41107 5.25593C9.08563 4.9305 9.08563 4.40286 9.41107 4.07742Z" fill="#061D37"/>
</svg>
