<svg width="20" height="21" viewBox="0 0 20 21" fill="none" xmlns="http://www.w3.org/2000/svg">
<path fill-rule="evenodd" clip-rule="evenodd" d="M3.23223 2.06524C3.70107 1.5964 4.33696 1.33301 5 1.33301H11.6667C11.8877 1.33301 12.0996 1.42081 12.2559 1.57709L17.2559 6.57709C17.4122 6.73337 17.5 6.94533 17.5 7.16634V17.1663C17.5 17.8294 17.2366 18.4653 16.7678 18.9341C16.2989 19.403 15.663 19.6663 15 19.6663H5C4.33696 19.6663 3.70107 19.403 3.23223 18.9341C2.76339 18.4653 2.5 17.8294 2.5 17.1663V3.83301C2.5 3.16997 2.76339 2.53408 3.23223 2.06524ZM5 2.99967C4.77899 2.99967 4.56702 3.08747 4.41074 3.24375C4.25446 3.40003 4.16667 3.61199 4.16667 3.83301V17.1663C4.16667 17.3874 4.25446 17.5993 4.41074 17.7556C4.56702 17.9119 4.77899 17.9997 5 17.9997H15C15.221 17.9997 15.433 17.9119 15.5893 17.7556C15.7455 17.5993 15.8333 17.3874 15.8333 17.1663V7.51152L11.3215 2.99967H5Z" fill="#061D37"/>
<path fill-rule="evenodd" clip-rule="evenodd" d="M11.6673 1.33301C12.1276 1.33301 12.5007 1.7061 12.5007 2.16634V6.33301H16.6673C17.1276 6.33301 17.5007 6.7061 17.5007 7.16634C17.5007 7.62658 17.1276 7.99967 16.6673 7.99967H11.6673C11.2071 7.99967 10.834 7.62658 10.834 7.16634V2.16634C10.834 1.7061 11.2071 1.33301 11.6673 1.33301Z" fill="#061D37"/>
<path fill-rule="evenodd" clip-rule="evenodd" d="M5.83398 11.3333C5.83398 10.8731 6.20708 10.5 6.66732 10.5H13.334C13.7942 10.5 14.1673 10.8731 14.1673 11.3333C14.1673 11.7936 13.7942 12.1667 13.334 12.1667H6.66732C6.20708 12.1667 5.83398 11.7936 5.83398 11.3333Z" fill="#061D37"/>
<path fill-rule="evenodd" clip-rule="evenodd" d="M5.83398 14.6663C5.83398 14.2061 6.20708 13.833 6.66732 13.833H13.334C13.7942 13.833 14.1673 14.2061 14.1673 14.6663C14.1673 15.1266 13.7942 15.4997 13.334 15.4997H6.66732C6.20708 15.4997 5.83398 15.1266 5.83398 14.6663Z" fill="#061D37"/>
<path fill-rule="evenodd" clip-rule="evenodd" d="M5.83398 8.00033C5.83398 7.54009 6.20708 7.16699 6.66732 7.16699H8.33398C8.79422 7.16699 9.16732 7.54009 9.16732 8.00033C9.16732 8.46056 8.79422 8.83366 8.33398 8.83366H6.66732C6.20708 8.83366 5.83398 8.46056 5.83398 8.00033Z" fill="#061D37"/>
</svg>
