<svg width="20" height="20" viewBox="0 0 20 20" fill="none" xmlns="http://www.w3.org/2000/svg">
<path fill-rule="evenodd" clip-rule="evenodd" d="M2.5 13.4375C2.5 13.0923 2.77982 12.8125 3.125 12.8125H11.5625C11.9077 12.8125 12.1875 13.0923 12.1875 13.4375C12.1875 13.7827 11.9077 14.0625 11.5625 14.0625H3.125C2.77982 14.0625 2.5 13.7827 2.5 13.4375Z" fill="#061D37"/>
<path fill-rule="evenodd" clip-rule="evenodd" d="M14.0625 13.4375C14.0625 13.0923 14.3423 12.8125 14.6875 12.8125H16.875C17.2202 12.8125 17.5 13.0923 17.5 13.4375C17.5 13.7827 17.2202 14.0625 16.875 14.0625H14.6875C14.3423 14.0625 14.0625 13.7827 14.0625 13.4375Z" fill="#061D37"/>
<path fill-rule="evenodd" clip-rule="evenodd" d="M13.125 12.5C12.6072 12.5 12.1875 12.9197 12.1875 13.4375C12.1875 13.9553 12.6072 14.375 13.125 14.375C13.6428 14.375 14.0625 13.9553 14.0625 13.4375C14.0625 12.9197 13.6428 12.5 13.125 12.5ZM10.9375 13.4375C10.9375 12.2294 11.9169 11.25 13.125 11.25C14.3331 11.25 15.3125 12.2294 15.3125 13.4375C15.3125 14.6456 14.3331 15.625 13.125 15.625C11.9169 15.625 10.9375 14.6456 10.9375 13.4375Z" fill="#061D37"/>
<path fill-rule="evenodd" clip-rule="evenodd" d="M2.5 6.5625C2.5 6.21732 2.77982 5.9375 3.125 5.9375H6.5625C6.90768 5.9375 7.1875 6.21732 7.1875 6.5625C7.1875 6.90768 6.90768 7.1875 6.5625 7.1875H3.125C2.77982 7.1875 2.5 6.90768 2.5 6.5625Z" fill="#061D37"/>
<path fill-rule="evenodd" clip-rule="evenodd" d="M9.0625 6.5625C9.0625 6.21732 9.34232 5.9375 9.6875 5.9375H16.875C17.2202 5.9375 17.5 6.21732 17.5 6.5625C17.5 6.90768 17.2202 7.1875 16.875 7.1875H9.6875C9.34232 7.1875 9.0625 6.90768 9.0625 6.5625Z" fill="#061D37"/>
<path fill-rule="evenodd" clip-rule="evenodd" d="M8.125 5.625C7.60723 5.625 7.1875 6.04473 7.1875 6.5625C7.1875 7.08027 7.60723 7.5 8.125 7.5C8.64277 7.5 9.0625 7.08027 9.0625 6.5625C9.0625 6.04473 8.64277 5.625 8.125 5.625ZM5.9375 6.5625C5.9375 5.35438 6.91688 4.375 8.125 4.375C9.33312 4.375 10.3125 5.35438 10.3125 6.5625C10.3125 7.77062 9.33312 8.75 8.125 8.75C6.91688 8.75 5.9375 7.77062 5.9375 6.5625Z" fill="#061D37"/>
</svg>
