<svg width="16" height="16" viewBox="0 0 16 16" fill="none" xmlns="http://www.w3.org/2000/svg">
<path fill-rule="evenodd" clip-rule="evenodd" d="M2 10.75C2 10.4739 2.22386 10.25 2.5 10.25H9.25C9.52614 10.25 9.75 10.4739 9.75 10.75C9.75 11.0261 9.52614 11.25 9.25 11.25H2.5C2.22386 11.25 2 11.0261 2 10.75Z" fill="white"/>
<path fill-rule="evenodd" clip-rule="evenodd" d="M11.25 10.75C11.25 10.4739 11.4739 10.25 11.75 10.25H13.5C13.7761 10.25 14 10.4739 14 10.75C14 11.0261 13.7761 11.25 13.5 11.25H11.75C11.4739 11.25 11.25 11.0261 11.25 10.75Z" fill="white"/>
<path fill-rule="evenodd" clip-rule="evenodd" d="M10.5 10C10.0858 10 9.75 10.3358 9.75 10.75C9.75 11.1642 10.0858 11.5 10.5 11.5C10.9142 11.5 11.25 11.1642 11.25 10.75C11.25 10.3358 10.9142 10 10.5 10ZM8.75 10.75C8.75 9.7835 9.5335 9 10.5 9C11.4665 9 12.25 9.7835 12.25 10.75C12.25 11.7165 11.4665 12.5 10.5 12.5C9.5335 12.5 8.75 11.7165 8.75 10.75Z" fill="white"/>
<path fill-rule="evenodd" clip-rule="evenodd" d="M2 5.25C2 4.97386 2.22386 4.75 2.5 4.75H5.25C5.52614 4.75 5.75 4.97386 5.75 5.25C5.75 5.52614 5.52614 5.75 5.25 5.75H2.5C2.22386 5.75 2 5.52614 2 5.25Z" fill="white"/>
<path fill-rule="evenodd" clip-rule="evenodd" d="M7.25 5.25C7.25 4.97386 7.47386 4.75 7.75 4.75H13.5C13.7761 4.75 14 4.97386 14 5.25C14 5.52614 13.7761 5.75 13.5 5.75H7.75C7.47386 5.75 7.25 5.52614 7.25 5.25Z" fill="white"/>
<path fill-rule="evenodd" clip-rule="evenodd" d="M6.5 4.5C6.08579 4.5 5.75 4.83579 5.75 5.25C5.75 5.66421 6.08579 6 6.5 6C6.91421 6 7.25 5.66421 7.25 5.25C7.25 4.83579 6.91421 4.5 6.5 4.5ZM4.75 5.25C4.75 4.2835 5.5335 3.5 6.5 3.5C7.4665 3.5 8.25 4.2835 8.25 5.25C8.25 6.2165 7.4665 7 6.5 7C5.5335 7 4.75 6.2165 4.75 5.25Z" fill="white"/>
</svg>
