<svg width="26" height="24" viewBox="0 0 26 24" fill="none" xmlns="http://www.w3.org/2000/svg">
  <path fill-rule="evenodd" clip-rule="evenodd"
    d="M13.0234 5C13.5757 5 14.0234 5.44772 14.0234 6V12C14.0234 12.5523 13.5757 13 13.0234 13C12.4712 13 12.0234 12.5523 12.0234 12V6C12.0234 5.44772 12.4712 5 13.0234 5Z"
    fill="#061D37" />
  <path fill-rule="evenodd" clip-rule="evenodd"
    d="M12.1574 11.5004C12.4334 11.0221 13.0449 10.858 13.5233 11.134L18.7233 14.134C19.2017 14.41 19.3658 15.0215 19.0898 15.4999C18.8138 15.9783 18.2023 16.1423 17.7239 15.8664L12.5239 12.8664C12.0455 12.5904 11.8814 11.9788 12.1574 11.5004Z"
    fill="#061D37" />
  <path fill-rule="evenodd" clip-rule="evenodd"
    d="M1 2.46094C1.55228 2.46094 2 2.90865 2 3.46094V7.46093H6C6.55228 7.46093 7 7.90865 7 8.46093C7 9.01322 6.55228 9.46093 6 9.46093H1C0.447715 9.46093 0 9.01322 0 8.46093V3.46094C0 2.90865 0.447715 2.46094 1 2.46094Z"
    fill="#061D37" />
  <path fill-rule="evenodd" clip-rule="evenodd"
    d="M10.6867 0.231299C13.0147 -0.232517 15.428 0.00455063 17.6213 0.912514C19.8146 1.82048 21.6893 3.35854 23.0083 5.33214C24.3273 7.30574 25.0313 9.62621 25.0313 12C25.0313 14.3738 24.3273 16.6943 23.0083 18.6679C21.6893 20.6415 19.8146 22.1795 17.6213 23.0875C15.428 23.9954 13.0147 24.2325 10.6867 23.7687C8.35862 23.3049 6.22044 22.161 4.5426 20.4818C4.15224 20.0911 4.1525 19.458 4.54318 19.0676C4.93386 18.6772 5.56703 18.6775 5.95739 19.0682C7.35559 20.4675 9.13741 21.4207 11.0774 21.8073C13.0175 22.1938 15.0286 21.9962 16.8563 21.2396C18.684 20.4829 20.2463 19.2012 21.3455 17.5565C22.4446 15.9119 23.0313 13.9782 23.0313 12C23.0313 10.0218 22.4446 8.08812 21.3455 6.44345C20.2463 4.79878 18.684 3.51706 16.8563 2.76043C15.0286 2.00379 13.0175 1.80624 11.0774 2.19275C9.13741 2.57926 7.35559 3.53248 5.95739 4.93182L5.95606 4.93315L1.70606 9.17065C1.31496 9.5606 0.681801 9.55966 0.291852 9.16856C-0.0980961 8.77747 -0.0971635 8.1443 0.293935 7.75435L4.5426 3.51819C4.54283 3.51796 4.54305 3.51774 4.54328 3.51751C6.22102 1.83867 8.35893 0.695053 10.6867 0.231299Z"
    fill="#061D37" />
</svg>
  