<svg width="14" height="14" viewBox="0 0 14 14" fill="none" xmlns="http://www.w3.org/2000/svg">
<g clip-path="url(#clip0_1246_17224)">
<path fill-rule="evenodd" clip-rule="evenodd" d="M0.583333 1.75C0.9055 1.75 1.16667 2.01117 1.16667 2.33333V5.25H4.08333C4.4055 5.25 4.66667 5.51117 4.66667 5.83333C4.66667 6.1555 4.4055 6.41667 4.08333 6.41667H0.583333C0.261167 6.41667 0 6.1555 0 5.83333V2.33333C0 2.01117 0.261167 1.75 0.583333 1.75Z" fill="#21231A"/>
<path fill-rule="evenodd" clip-rule="evenodd" d="M9.33301 8.16665C9.33301 7.84448 9.59418 7.58331 9.91634 7.58331H13.4163C13.7385 7.58331 13.9997 7.84448 13.9997 8.16665V11.6666C13.9997 11.9888 13.7385 12.25 13.4163 12.25C13.0942 12.25 12.833 11.9888 12.833 11.6666V8.74998H9.91634C9.59418 8.74998 9.33301 8.48881 9.33301 8.16665Z" fill="#21231A"/>
<path fill-rule="evenodd" clip-rule="evenodd" d="M5.38239 1.39774C6.32897 1.12394 7.32948 1.09439 8.29057 1.31185C9.25166 1.52931 10.142 1.98668 10.8785 2.6413C11.615 3.29592 12.1737 4.12645 12.5024 5.05539C12.6099 5.3591 12.4508 5.69243 12.1471 5.7999C11.8434 5.90737 11.5101 5.74829 11.4026 5.44458C11.1396 4.70143 10.6927 4.03701 10.1035 3.51332C9.51424 2.98962 8.80197 2.62372 8.0331 2.44975C7.26423 2.27579 6.46382 2.29942 5.70656 2.51846C4.9493 2.7375 4.25986 3.1448 3.70258 3.70236C3.69827 3.70667 3.6939 3.71091 3.68946 3.71509L0.982788 6.25842C0.748009 6.47903 0.378841 6.46755 0.158229 6.23277C-0.0623826 5.99799 -0.0508975 5.62882 0.183882 5.40821L2.88406 2.87097C3.57949 2.17743 4.43882 1.67067 5.38239 1.39774ZM13.8418 7.7672C14.0624 8.00198 14.0509 8.37114 13.8161 8.59176L11.1159 11.129C10.4205 11.8225 9.56118 12.3293 8.61762 12.6022C7.67104 12.876 6.67052 12.9056 5.70944 12.6881C4.74835 12.4707 3.85801 12.0133 3.1215 11.3587C2.38499 10.704 1.8263 9.87352 1.49758 8.94458C1.39011 8.64087 1.54919 8.30754 1.8529 8.20007C2.15662 8.09259 2.48995 8.25167 2.59742 8.55539C2.8604 9.29853 3.30734 9.96295 3.89655 10.4866C4.48576 11.0103 5.19803 11.3762 5.9669 11.5502C6.73577 11.7242 7.53618 11.7005 8.29344 11.4815C9.05071 11.2625 9.74014 10.8552 10.2974 10.2976C10.3 10.295 10.3026 10.2924 10.3053 10.2899C10.307 10.2882 10.3088 10.2865 10.3106 10.2849L13.0172 7.74154C13.252 7.52093 13.6212 7.53242 13.8418 7.7672Z" fill="#261700"/>
</g>
<defs>
<clipPath id="clip0_1246_17224">
<rect width="14" height="14" fill="white"/>
</clipPath>
</defs>
</svg>
