<svg width="16" height="17" viewBox="0 0 16 17" fill="none" xmlns="http://www.w3.org/2000/svg">
<path fill-rule="evenodd" clip-rule="evenodd" d="M7.33398 3.16683C4.75666 3.16683 2.66732 5.25617 2.66732 7.8335C2.66732 10.4108 4.75666 12.5002 7.33398 12.5002C9.91131 12.5002 12.0007 10.4108 12.0007 7.8335C12.0007 5.25617 9.91131 3.16683 7.33398 3.16683ZM1.33398 7.8335C1.33398 4.51979 4.02028 1.8335 7.33398 1.8335C10.6477 1.8335 13.334 4.51979 13.334 7.8335C13.334 11.1472 10.6477 13.8335 7.33398 13.8335C4.02028 13.8335 1.33398 11.1472 1.33398 7.8335Z" fill="#061D37"/>
<path fill-rule="evenodd" clip-rule="evenodd" d="M10.6289 11.1284C10.8892 10.868 11.3113 10.868 11.5717 11.1284L14.4717 14.0284C14.732 14.2887 14.732 14.7108 14.4717 14.9712C14.2113 15.2315 13.7892 15.2315 13.5289 14.9712L10.6289 12.0712C10.3685 11.8108 10.3685 11.3887 10.6289 11.1284Z" fill="#061D37"/>
</svg>
