<svg width="20" height="21" viewBox="0 0 20 21" fill="none" xmlns="http://www.w3.org/2000/svg">
  <path fill-rule="evenodd" clip-rule="evenodd"
    d="M9.9987 2.99967C5.85656 2.99967 2.4987 6.35754 2.4987 10.4997C2.4987 14.6418 5.85656 17.9997 9.9987 17.9997C14.1408 17.9997 17.4987 14.6418 17.4987 10.4997C17.4987 6.35754 14.1408 2.99967 9.9987 2.99967ZM0.832031 10.4997C0.832031 5.43706 4.93609 1.33301 9.9987 1.33301C15.0613 1.33301 19.1654 5.43706 19.1654 10.4997C19.1654 15.5623 15.0613 19.6663 9.9987 19.6663C4.93609 19.6663 0.832031 15.5623 0.832031 10.4997Z"
    fill="#061D37" />
  <path fill-rule="evenodd" clip-rule="evenodd"
    d="M10.0013 4.66699C10.4615 4.66699 10.8346 5.04009 10.8346 5.50033V9.9853L13.7073 11.4216C14.119 11.6275 14.2858 12.128 14.08 12.5397C13.8742 12.9513 13.3736 13.1182 12.962 12.9123L9.62862 11.2457C9.3463 11.1045 9.16797 10.816 9.16797 10.5003V5.50033C9.16797 5.04009 9.54106 4.66699 10.0013 4.66699Z"
    fill="#061D37" />
</svg>