<svg width="20" height="20" viewBox="0 0 20 20" fill="none" xmlns="http://www.w3.org/2000/svg">
<path fill-rule="evenodd" clip-rule="evenodd" d="M1.66797 4.99935C1.66797 4.53911 2.04106 4.16602 2.5013 4.16602H17.5013C17.9615 4.16602 18.3346 4.53911 18.3346 4.99935C18.3346 5.45959 17.9615 5.83268 17.5013 5.83268H2.5013C2.04106 5.83268 1.66797 5.45959 1.66797 4.99935Z" fill="#061D37"/>
<path fill-rule="evenodd" clip-rule="evenodd" d="M8.33203 2.50065C8.11102 2.50065 7.89906 2.58845 7.74278 2.74473C7.58649 2.90101 7.4987 3.11297 7.4987 3.33398V5.00065C7.4987 5.46089 7.1256 5.83398 6.66536 5.83398C6.20513 5.83398 5.83203 5.46089 5.83203 5.00065V3.33398C5.83203 2.67094 6.09542 2.03506 6.56426 1.56622C7.03311 1.09738 7.66899 0.833984 8.33203 0.833984H11.6654C12.3284 0.833984 12.9643 1.09738 13.4331 1.56622C13.902 2.03506 14.1654 2.67094 14.1654 3.33398V5.00065C14.1654 5.46089 13.7923 5.83398 13.332 5.83398C12.8718 5.83398 12.4987 5.46089 12.4987 5.00065V3.33398C12.4987 3.11297 12.4109 2.90101 12.2546 2.74473C12.0983 2.58845 11.8864 2.50065 11.6654 2.50065H8.33203ZM4.16536 4.16732C4.6256 4.16732 4.9987 4.54041 4.9987 5.00065V16.6673C4.9987 16.8883 5.0865 17.1003 5.24278 17.2566C5.39906 17.4129 5.61102 17.5007 5.83203 17.5007H14.1654C14.3864 17.5007 14.5983 17.4129 14.7546 17.2566C14.9109 17.1003 14.9987 16.8883 14.9987 16.6673V5.00065C14.9987 4.54041 15.3718 4.16732 15.832 4.16732C16.2923 4.16732 16.6654 4.54041 16.6654 5.00065V16.6673C16.6654 17.3304 16.402 17.9662 15.9331 18.4351C15.4643 18.9039 14.8284 19.1673 14.1654 19.1673H5.83203C5.16899 19.1673 4.5331 18.9039 4.06426 18.4351C3.59542 17.9662 3.33203 17.3304 3.33203 16.6673V5.00065C3.33203 4.54041 3.70513 4.16732 4.16536 4.16732Z" fill="#061D37"/>
<path fill-rule="evenodd" clip-rule="evenodd" d="M8.33333 8.33398C8.79357 8.33398 9.16667 8.70708 9.16667 9.16732V14.1673C9.16667 14.6276 8.79357 15.0007 8.33333 15.0007C7.8731 15.0007 7.5 14.6276 7.5 14.1673V9.16732C7.5 8.70708 7.8731 8.33398 8.33333 8.33398Z" fill="#061D37"/>
<path fill-rule="evenodd" clip-rule="evenodd" d="M11.6654 8.33398C12.1256 8.33398 12.4987 8.70708 12.4987 9.16732V14.1673C12.4987 14.6276 12.1256 15.0007 11.6654 15.0007C11.2051 15.0007 10.832 14.6276 10.832 14.1673V9.16732C10.832 8.70708 11.2051 8.33398 11.6654 8.33398Z" fill="#061D37"/>
</svg>
