<svg width="24" height="30" viewBox="0 0 24 30" fill="none" xmlns="http://www.w3.org/2000/svg">
  <path fill-rule="evenodd" clip-rule="evenodd"
    d="M7.05033 10.0503C8.36309 8.7375 10.1436 8 12.0001 8C13.8566 8 15.6371 8.7375 16.9498 10.0503C18.2626 11.363 19.0001 13.1435 19.0001 15C19.0001 18.3527 19.7171 20.4346 20.378 21.6461C20.7098 22.2544 21.0329 22.6535 21.2573 22.8904C21.3698 23.0091 21.4581 23.0878 21.5114 23.1322C21.538 23.1544 21.5558 23.168 21.5635 23.1737C21.5647 23.1746 21.5657 23.1753 21.5664 23.1758C21.9249 23.4221 22.0835 23.8725 21.9572 24.2898C21.8295 24.7115 21.4407 25 21.0001 25H3.00008C2.55941 25 2.17068 24.7115 2.04299 24.2898C1.91664 23.8725 2.07528 23.4221 2.43377 23.1758C2.43447 23.1753 2.43542 23.1746 2.43663 23.1737C2.44432 23.168 2.46218 23.1544 2.4888 23.1322C2.54202 23.0878 2.6304 23.0091 2.74288 22.8904C2.9673 22.6535 3.29039 22.2544 3.62218 21.6461C4.28301 20.4346 5.00008 18.3527 5.00008 15C5.00008 13.1435 5.73758 11.363 7.05033 10.0503ZM2.44388 23.169C2.44395 23.1689 2.44403 23.1688 2.44411 23.1688C2.44411 23.1688 2.4441 23.1688 2.4441 23.1688L2.44388 23.169ZM5.1494 23H18.8508C18.7747 22.8753 18.6983 22.7434 18.6222 22.6039C17.783 21.0654 17.0001 18.6473 17.0001 15C17.0001 13.6739 16.4733 12.4021 15.5356 11.4645C14.5979 10.5268 13.3262 10 12.0001 10C10.674 10 9.40223 10.5268 8.46454 11.4645C7.52686 12.4021 7.00008 13.6739 7.00008 15C7.00008 18.6473 6.21715 21.0654 5.37797 22.6039C5.30188 22.7434 5.22549 22.8753 5.1494 23Z"
    fill="#061D37" />
  <path fill-rule="evenodd" clip-rule="evenodd"
    d="M9.49839 27.1352C9.97612 26.858 10.588 27.0207 10.8652 27.4984C10.9531 27.6499 11.0792 27.7757 11.2311 27.8632C11.3829 27.9506 11.555 27.9966 11.7302 27.9966C11.9054 27.9966 12.0775 27.9506 12.2293 27.8632C12.3811 27.7757 12.5073 27.6499 12.5952 27.4984C12.8723 27.0207 13.4842 26.858 13.9619 27.1352C14.4397 27.4123 14.6023 28.0242 14.3252 28.5019C14.0614 28.9566 13.6829 29.3339 13.2275 29.5962C12.7721 29.8586 12.2557 29.9966 11.7302 29.9966C11.2046 29.9966 10.6883 29.8586 10.2328 29.5962C9.7774 29.3339 9.39888 28.9566 9.13517 28.5019C8.85804 28.0242 9.02067 27.4123 9.49839 27.1352Z"
    fill="#061D37" />
  <circle cx="18" cy="5" r="5" fill="#F2A40D" />
</svg>