<svg width="24" height="24" viewBox="0 0 24 24" fill="none" xmlns="http://www.w3.org/2000/svg">
<path d="M8.85156 15.375L10.0516 8.625H11.9266L10.7641 15.375H8.85156Z" fill="#3C58BF"/>
<path d="M8.85156 15.375L10.3891 8.625H11.9266L10.7641 15.375H8.85156Z" fill="#293688"/>
<path d="M17.55 8.70039C17.175 8.55039 16.575 8.40039 15.825 8.40039C13.95 8.40039 12.6 9.33789 12.6 10.6879C12.6 11.7004 13.5375 12.2254 14.2875 12.5629C15.0375 12.9004 15.2625 13.1254 15.2625 13.4254C15.2625 13.8754 14.6625 14.1004 14.1375 14.1004C13.3875 14.1004 12.975 13.9879 12.3375 13.7254L12.075 13.6129L11.8125 15.1504C12.2625 15.3379 13.0875 15.5254 13.95 15.5254C15.9375 15.5254 17.25 14.5879 17.25 13.1629C17.25 12.3754 16.7625 11.7754 15.6375 11.2879C14.9625 10.9504 14.55 10.7629 14.55 10.4254C14.55 10.1254 14.8875 9.82539 15.6375 9.82539C16.275 9.82539 16.725 9.93789 17.0625 10.0879L17.25 10.1629L17.55 8.70039Z" fill="#3C58BF"/>
<path d="M17.55 8.70039C17.175 8.55039 16.575 8.40039 15.825 8.40039C13.95 8.40039 12.9375 9.33789 12.9375 10.6879C12.9375 11.7004 13.5375 12.2254 14.2875 12.5629C15.0375 12.9004 15.2625 13.1254 15.2625 13.4254C15.2625 13.8754 14.6625 14.1004 14.1375 14.1004C13.3875 14.1004 12.975 13.9879 12.3375 13.7254L12.075 13.6129L11.8125 15.1504C12.2625 15.3379 13.0875 15.5254 13.95 15.5254C15.9375 15.5254 17.25 14.5879 17.25 13.1629C17.25 12.3754 16.7625 11.7754 15.6375 11.2879C14.9625 10.9504 14.55 10.7629 14.55 10.4254C14.55 10.1254 14.8875 9.82539 15.6375 9.82539C16.275 9.82539 16.725 9.93789 17.0625 10.0879L17.25 10.1629L17.55 8.70039Z" fill="#293688"/>
<path d="M20.7758 8.625C20.3258 8.625 19.9883 8.6625 19.8008 9.1125L16.9883 15.375H19.0133L19.3883 14.25H21.7883L22.0133 15.375H23.8133L22.2383 8.625H20.7758ZM19.9133 13.125C20.0258 12.7875 20.6633 11.1375 20.6633 11.1375C20.6633 11.1375 20.8133 10.725 20.9258 10.4625L21.0383 11.1C21.0383 11.1 21.4133 12.7875 21.4883 13.1625H19.9133V13.125Z" fill="#3C58BF"/>
<path d="M21.2258 8.625C20.7758 8.625 20.4383 8.6625 20.2508 9.1125L16.9883 15.375H19.0133L19.3883 14.25H21.7883L22.0133 15.375H23.8133L22.2383 8.625H21.2258ZM19.9133 13.125C20.0633 12.75 20.6633 11.1375 20.6633 11.1375C20.6633 11.1375 20.8133 10.725 20.9258 10.4625L21.0383 11.1C21.0383 11.1 21.4133 12.7875 21.4883 13.1625H19.9133V13.125Z" fill="#293688"/>
<path d="M5.39844 13.3496L5.21094 12.3746C4.87344 11.2496 3.78594 10.0121 2.58594 9.41211L4.27344 15.4121H6.29844L9.33594 8.66211H7.31094L5.39844 13.3496Z" fill="#3C58BF"/>
<path d="M5.39844 13.3496L5.21094 12.3746C4.87344 11.2496 3.78594 10.0121 2.58594 9.41211L4.27344 15.4121H6.29844L9.33594 8.66211H7.68594L5.39844 13.3496Z" fill="#293688"/>
<path d="M0.1875 8.625L0.525 8.7C2.925 9.2625 4.575 10.6875 5.2125 12.375L4.5375 9.1875C4.425 8.7375 4.0875 8.625 3.675 8.625H0.1875Z" fill="#FFBC00"/>
<path d="M0.1875 8.625C2.5875 9.1875 4.575 10.65 5.2125 12.3375L4.575 9.675C4.4625 9.225 4.0875 8.9625 3.675 8.9625L0.1875 8.625Z" fill="#F7981D"/>
<path d="M0.1875 8.625C2.5875 9.1875 4.575 10.65 5.2125 12.3375L4.7625 10.875C4.65 10.425 4.5 9.975 3.975 9.7875L0.1875 8.625Z" fill="#ED7C00"/>
<path d="M7.275 13.125L6 11.85L5.4 13.275L5.25 12.3375C4.9125 11.2125 3.825 9.975 2.625 9.375L4.3125 15.375H6.3375L7.275 13.125ZM10.7625 15.375L9.15 13.725L8.85 15.375H10.7625ZM15.075 13.05C15.225 13.2 15.3 13.3125 15.2625 13.4625C15.2625 13.9125 14.6625 14.1375 14.1375 14.1375C13.3875 14.1375 12.975 14.025 12.3375 13.7625L12.075 13.65L11.8125 15.1875C12.2625 15.375 13.0875 15.5625 13.95 15.5625C15.15 15.5625 16.125 15.225 16.6875 14.625L15.075 13.05ZM17.25 15.375H19.0125L19.3875 14.25H21.7875L22.0125 15.375H23.8125L23.175 12.6375L20.925 10.4625L21.0375 11.0625C21.0375 11.0625 21.4125 12.75 21.4875 13.125H19.9125C20.0625 12.75 20.6625 11.1375 20.6625 11.1375C20.6625 11.1375 20.8125 10.725 20.925 10.4625" fill="#051244"/>
</svg>
